<?xml version="1.0" standalone="no"?>
<!DOCTYPE svg PUBLIC "-//W3C//DTD SVG 20010904//EN"
 "http://www.w3.org/TR/2001/REC-SVG-20010904/DTD/svg10.dtd">
<svg version="1.0" xmlns="http://www.w3.org/2000/svg"
 width="225.000000pt" height="225.000000pt" viewBox="0 0 225.000000 225.000000"
 preserveAspectRatio="xMidYMid meet">

<g transform="translate(0.000000,225.000000) scale(0.100000,-0.100000)"
fill="#000000" stroke="none">
<path d="M874 1655 c-99 -25 -209 -73 -291 -126 -42 -28 -49 -36 -38 -46 8 -7
16 -9 19 -5 9 14 117 12 145 -3 50 -26 82 -83 41 -72 -15 4 -20 1 -18 -11 4
-22 -25 -27 -61 -11 -28 13 -28 13 -8 24 29 14 32 32 7 40 -15 5 -29 0 -44
-14 -12 -12 -28 -21 -35 -21 -10 0 -11 -3 -2 -14 9 -11 7 -15 -8 -19 -11 -3
-22 0 -24 7 -6 15 -101 -34 -105 -55 -2 -10 10 -20 38 -29 31 -10 39 -17 35
-31 -3 -9 -1 -20 4 -23 5 -4 12 2 15 12 4 11 18 24 31 30 14 7 25 20 25 31 0
35 12 51 36 51 17 0 27 -8 34 -26 9 -22 13 -24 26 -13 13 10 17 10 25 -2 5 -8
9 -19 9 -24 0 -6 5 -16 11 -22 13 -13 21 -93 9 -93 -5 0 -16 3 -25 6 -14 6
-14 8 2 26 17 19 17 19 -12 12 -17 -4 -37 -7 -45 -7 -9 1 -16 -8 -16 -23 -2
-18 3 -24 20 -24 19 -1 19 -2 4 -11 -10 -5 -34 -11 -53 -13 -19 -1 -41 -9 -48
-18 -6 -8 -27 -25 -44 -37 -18 -12 -33 -30 -33 -39 0 -9 -16 -27 -36 -40 -31
-21 -35 -27 -30 -53 6 -33 -13 -41 -21 -8 -5 18 -12 20 -65 16 -34 -2 -65 -10
-74 -19 -21 -20 -30 -84 -14 -103 16 -19 49 -19 56 -1 3 8 13 17 21 20 13 5
15 0 10 -28 -5 -30 -3 -35 16 -38 17 -2 23 -11 27 -43 5 -37 7 -40 38 -42 21
-1 41 6 52 17 16 16 25 17 52 9 49 -14 86 -11 96 7 13 24 26 -1 13 -25 -12
-22 2 -38 46 -50 18 -5 34 -19 44 -40 12 -27 30 -39 88 -63 40 -17 75 -37 78
-45 3 -8 -3 -36 -15 -61 -11 -26 -20 -58 -21 -72 -1 -48 -11 -68 -41 -80 -17
-7 -30 -20 -30 -30 0 -29 -40 -110 -55 -110 -8 0 -11 -7 -8 -21 4 -15 0 -22
-15 -26 -11 -2 -22 -13 -25 -23 -4 -16 8 -23 72 -44 243 -81 495 -81 729 -2
246 84 463 259 596 480 34 57 36 64 35 150 -1 194 -19 220 -95 145 -34 -33
-44 -51 -44 -75 0 -17 -6 -37 -14 -43 -11 -9 -16 -5 -26 19 l-13 30 -30 -40
c-19 -27 -33 -38 -40 -31 -6 6 1 23 19 48 16 21 32 39 35 41 10 5 -12 82 -23
82 -6 0 -19 11 -30 25 -13 16 -29 25 -48 25 -27 0 -29 -2 -24 -30 7 -34 -11
-64 -33 -55 -8 3 -33 -8 -56 -24 -23 -17 -53 -33 -67 -36 -23 -5 -28 0 -58 67
-36 79 -59 115 -67 106 -8 -8 53 -137 83 -174 22 -28 30 -31 59 -27 41 7 42
-5 8 -64 -13 -24 -20 -43 -14 -43 5 0 9 -7 9 -15 0 -10 -10 -15 -30 -15 -45 0
-64 -44 -55 -126 6 -61 6 -63 -24 -90 -20 -17 -31 -37 -31 -54 0 -14 -5 -31
-10 -36 -6 -6 -19 -26 -29 -45 -22 -41 -57 -67 -95 -71 -28 -3 -31 1 -52 57
-49 135 -56 163 -45 184 12 22 15 84 4 94 -3 4 -12 2 -19 -4 -25 -20 -37 2
-14 26 14 15 18 25 11 30 -6 3 -11 24 -11 46 0 29 -4 39 -16 39 -9 0 -22 7
-29 17 -10 13 -17 14 -45 5 -18 -7 -50 -12 -71 -12 -33 0 -43 6 -76 46 -36 44
-37 50 -35 107 2 34 8 69 13 79 14 26 -48 120 -74 112 -14 -5 -18 -1 -15 13 3
13 -18 33 -80 77 l-84 59 23 18 c13 10 28 19 32 19 4 0 44 -14 88 -31 45 -17
84 -27 88 -23 17 19 135 151 160 179 15 17 51 58 79 92 l53 61 -33 25 c-87 65
-249 177 -256 177 -4 -1 -48 -12 -98 -25z m10 -662 c8 -9 -54 -73 -71 -73 -20
0 -16 11 19 47 33 34 40 38 52 26z m-150 -154 c-20 -21 -41 -36 -47 -32 -5 3
8 23 29 44 20 21 41 36 47 32 5 -3 -8 -23 -29 -44z m1076 -179 c0 -13 -54 -40
-80 -40 -34 0 -22 17 23 33 52 19 57 20 57 7z m-606 -188 c3 -5 -12 -26 -33
-46 -50 -48 -68 -30 -20 20 34 35 44 40 53 26z m442 -106 c-27 -92 -65 -99
-51 -9 4 31 15 53 33 68 35 30 39 15 18 -59z m-561 -5 c5 -9 -74 -71 -89 -71
-18 0 0 29 32 52 42 30 48 32 57 19z m-145 -85 c0 -13 -41 -26 -86 -26 -44 0
-28 29 19 33 23 2 48 4 55 5 6 1 12 -4 12 -12z"/>
<path d="M1591 1557 c-7 -10 -6 -28 6 -64 l16 -51 47 1 c42 1 47 3 42 20 -4
17 -1 19 18 14 20 -5 21 -4 9 7 -8 8 -39 30 -71 50 -44 28 -58 33 -67 23z"/>
<path d="M571 1466 c-9 -10 -8 -16 3 -26 19 -15 41 -3 27 14 -6 7 -8 16 -4 19
3 4 2 7 -4 7 -6 0 -16 -6 -22 -14z"/>
<path d="M480 1450 c-23 -20 -23 -20 -2 -20 11 0 24 5 28 11 4 8 9 7 15 -2 6
-10 9 -8 9 9 0 27 -20 28 -50 2z"/>
<path d="M1121 1166 c-7 -8 -8 -17 -3 -20 6 -3 15 1 21 8 7 8 8 17 3 20 -6 3
-15 -1 -21 -8z"/>
<path d="M1440 1161 c-19 -37 -13 -50 19 -41 15 4 40 6 55 3 31 -6 32 1 7 33
-13 16 -21 20 -24 12 -4 -10 -7 -11 -18 0 -18 17 -27 15 -39 -7z"/>
<path d="M1280 1161 c0 -5 11 -18 25 -29 15 -12 23 -26 19 -35 -4 -12 -13 -7
-41 20 -31 32 -38 34 -66 26 -19 -5 -40 -22 -52 -40 -11 -18 -31 -37 -45 -43
-23 -9 -22 -9 10 -5 130 19 130 19 130 -6 0 -18 11 -29 42 -43 38 -18 42 -18
53 -3 11 15 17 16 51 4 57 -19 98 -9 102 26 3 26 1 27 -38 27 -34 0 -42 4 -52
25 -12 27 -35 29 -30 2 5 -29 -16 -27 -28 3 -12 29 -80 90 -80 71z"/>
<path d="M1043 1095 c-20 -14 -21 -17 -6 -54 15 -38 16 -38 34 -20 23 23 24
45 3 53 -9 4 -14 13 -10 21 7 19 6 19 -21 0z"/>
<path d="M1650 963 c0 -6 8 -17 18 -24 16 -13 16 -13 2 6 -8 11 -16 22 -17 24
-2 2 -3 0 -3 -6z"/>
<path d="M146 878 c-4 -13 -9 -79 -12 -148 l-6 -125 37 -60 c55 -91 109 -157
191 -234 76 -73 210 -169 220 -158 5 5 -10 156 -22 214 -2 12 -17 30 -33 39
-17 10 -42 39 -56 65 -14 27 -30 51 -35 54 -14 9 -10 77 6 102 24 38 14 104
-12 82 -11 -9 -22 -2 -54 30 -22 23 -47 41 -54 41 -8 0 -19 7 -26 15 -7 9 -19
14 -25 11 -19 -7 -89 38 -93 59 -6 32 -19 38 -26 13z"/>
</g>
</svg>
