<?xml version="1.0" standalone="no"?>
<!DOCTYPE svg PUBLIC "-//W3C//DTD SVG 20010904//EN"
 "http://www.w3.org/TR/2001/REC-SVG-20010904/DTD/svg10.dtd">
<svg version="1.0" xmlns="http://www.w3.org/2000/svg"
 width="512.000000pt" height="512.000000pt" viewBox="0 0 512.000000 512.000000"
 preserveAspectRatio="xMidYMid meet">

<g transform="translate(0.000000,512.000000) scale(0.100000,-0.100000)"
fill="#000000" stroke="none">
<path d="M2087 3794 c-289 -60 -612 -203 -842 -372 l-60 -44 39 7 c36 6 38 5
33 -14 -7 -27 -1 -26 35 4 31 26 58 30 65 8 2 -6 -12 -16 -31 -23 -32 -10 -36
-15 -36 -46 0 -19 5 -34 10 -34 6 0 10 -9 10 -20 0 -27 13 -25 47 5 26 23 26
26 11 36 -24 14 -22 31 5 57 21 19 34 22 119 22 74 0 100 -4 112 -15 8 -9 31
-22 50 -30 20 -9 37 -24 41 -37 4 -13 20 -34 36 -48 49 -42 16 -82 -44 -53
l-27 14 6 -41 c4 -26 3 -40 -5 -41 -26 -3 -30 -4 -37 -11 -16 -17 -55 -7 -87
22 -24 21 -45 30 -68 30 -26 0 -30 3 -19 10 8 5 27 10 42 10 24 0 88 42 88 58
0 4 -15 17 -33 30 -50 34 -77 29 -124 -23 -32 -36 -47 -45 -73 -45 l-33 0 21
-23 c23 -24 30 -53 11 -42 -5 4 -22 4 -37 0 -26 -6 -26 -7 -8 -21 13 -9 15
-14 6 -14 -7 0 -22 7 -31 16 -14 12 -16 21 -9 35 10 17 8 17 -28 5 -48 -17
-114 -50 -169 -85 -36 -22 -43 -31 -43 -58 0 -29 5 -34 57 -58 32 -14 70 -29
85 -32 24 -5 26 -9 25 -52 -2 -40 1 -46 18 -46 14 0 22 10 28 37 7 32 15 39
44 47 51 14 73 38 73 80 0 20 9 55 20 79 l20 43 47 -7 c58 -8 83 -28 83 -66 0
-24 4 -28 29 -28 16 0 34 7 41 15 24 29 39 17 46 -36 4 -28 12 -55 18 -60 6
-5 22 -17 36 -28 24 -18 24 -20 11 -71 -12 -47 -12 -54 3 -62 10 -5 16 -22 16
-42 l0 -33 -49 11 c-27 6 -53 14 -56 18 -4 4 7 25 25 48 35 44 31 48 -23 25
-20 -8 -48 -15 -62 -15 -15 0 -24 -4 -20 -10 9 -14 -7 -12 -28 4 -10 8 -27 11
-39 8 -20 -5 -20 -5 2 -22 19 -15 21 -20 10 -39 -20 -38 -6 -54 41 -47 55 9
43 -8 -28 -40 -65 -28 -85 -30 -76 -8 5 13 2 15 -18 9 -55 -17 -99 -46 -99
-65 0 -13 -14 -26 -42 -39 -67 -31 -128 -93 -128 -129 0 -24 -7 -35 -37 -53
-21 -12 -57 -40 -80 -62 l-42 -41 6 -58 c4 -38 2 -58 -5 -58 -25 0 -42 14 -42
35 0 34 -24 53 -75 61 -33 5 -51 2 -69 -10 -18 -11 -37 -14 -70 -10 -92 13
-151 -62 -151 -194 0 -59 2 -66 33 -93 18 -16 40 -29 50 -29 26 0 60 27 77 61
12 22 22 29 45 29 35 0 36 -8 14 -78 -21 -66 -15 -82 33 -82 59 0 67 -10 60
-69 -6 -53 5 -99 26 -113 7 -4 33 -5 58 -2 30 4 49 2 53 -5 12 -19 26 -12 43
23 20 43 91 77 106 50 7 -11 12 -12 22 -4 10 9 20 7 41 -7 19 -12 49 -18 96
-19 67 -2 69 -1 95 33 26 34 26 34 46 14 20 -19 20 -20 -11 -57 -35 -43 -34
-48 32 -96 23 -17 52 -28 71 -28 40 0 76 -36 109 -111 22 -51 29 -58 72 -73
26 -9 55 -23 64 -31 9 -8 37 -19 63 -24 25 -4 67 -22 93 -40 26 -17 51 -31 55
-31 3 0 12 -13 19 -30 14 -35 4 -73 -37 -135 -22 -33 -28 -57 -35 -140 -11
-134 -34 -181 -101 -206 -68 -25 -77 -35 -77 -85 0 -31 -12 -70 -42 -132 -23
-48 -46 -90 -52 -94 -6 -5 -23 -5 -38 -2 -31 6 -35 -3 -13 -32 28 -37 19 -63
-30 -84 -33 -14 -45 -25 -45 -40 0 -12 -9 -24 -22 -29 -21 -8 -19 -11 27 -31
170 -75 465 -153 690 -181 129 -16 461 -16 590 0 478 60 907 237 1285 530 109
84 347 322 431 431 78 100 186 264 222 335 21 41 26 70 31 165 9 166 -17 476
-43 518 -5 9 -21 11 -50 6 -37 -6 -54 -19 -129 -96 l-87 -90 -6 -69 c-5 -67
-27 -117 -56 -126 -6 -2 -23 26 -39 62 -16 36 -31 65 -34 65 -3 0 -17 -19 -32
-43 -15 -23 -45 -62 -66 -87 -34 -39 -41 -43 -56 -31 -22 18 -20 34 5 57 12
10 42 49 68 85 29 40 52 64 60 61 10 -3 12 0 7 14 -14 37 -36 129 -36 152 0
20 -4 23 -22 19 -24 -7 -58 8 -58 25 0 7 -19 32 -42 55 -41 42 -44 43 -106 43
-47 0 -63 -3 -60 -12 3 -7 13 -37 23 -66 l17 -54 -43 -44 c-43 -44 -44 -44
-59 -24 l-16 21 -19 -22 c-11 -11 -37 -30 -57 -40 -21 -11 -38 -23 -38 -28 0
-13 -165 -84 -185 -79 -11 2 -28 32 -50 90 -18 48 -44 101 -59 118 -14 17 -26
39 -26 47 0 17 -54 117 -78 146 -8 9 -21 17 -28 17 -17 0 3 -70 39 -134 14
-25 28 -60 32 -78 4 -18 16 -45 26 -60 11 -14 19 -31 19 -38 0 -6 22 -33 49
-60 29 -29 52 -62 56 -81 l7 -32 52 8 c28 4 67 8 86 9 33 1 35 -1 32 -27 -4
-40 -67 -166 -99 -199 l-27 -28 27 0 c22 0 27 -5 27 -25 0 -24 -3 -25 -57 -25
l-58 0 -38 -59 c-61 -95 -63 -106 -44 -218 29 -165 32 -156 -82 -254 -40 -35
-41 -37 -41 -102 0 -64 -1 -67 -30 -82 -22 -11 -30 -23 -30 -43 0 -16 -20 -56
-48 -96 -60 -89 -112 -119 -210 -120 l-66 -1 -7 46 c-4 25 -19 70 -34 100 -16
30 -36 92 -46 139 -11 47 -28 106 -39 132 -26 60 -25 100 2 165 21 50 21 58 9
131 -7 42 -15 79 -17 81 -2 2 -17 -8 -34 -23 -37 -30 -43 -31 -61 -10 -12 15
-8 21 28 53 l42 36 -25 30 c-22 27 -24 37 -22 115 l3 85 -45 3 c-38 2 -48 8
-62 32 -20 36 -45 38 -107 10 -24 -11 -64 -20 -90 -20 -25 0 -61 -4 -79 -9
-30 -9 -36 -6 -92 41 -33 27 -60 56 -60 64 0 7 -20 36 -45 64 -49 55 -55 82
-34 163 6 27 7 60 1 92 -7 44 -5 56 18 105 l27 55 -74 105 -75 105 -41 -3 -40
-3 6 39 7 38 -185 129 c-102 71 -185 132 -185 135 1 9 98 80 109 80 6 0 95
-32 197 -70 103 -39 190 -70 194 -68 22 8 338 373 333 384 -3 8 10 22 31 35
32 18 317 342 315 358 -1 12 -626 446 -645 448 -10 1 -72 -9 -137 -23z m-76
-1530 c12 -15 4 -27 -75 -100 -69 -65 -92 -81 -103 -73 -7 6 -13 16 -13 23 0
14 151 166 166 166 6 0 18 -7 25 -16z m-345 -363 c-80 -79 -87 -84 -102 -69
-15 15 -14 20 22 63 21 26 58 64 83 85 43 37 46 38 64 23 17 -16 14 -21 -67
-102z m2454 -407 c0 -17 -57 -46 -129 -68 -78 -23 -101 -21 -101 7 0 21 8 25
58 37 31 7 77 23 102 35 46 23 70 20 70 -11z m-1386 -417 c9 -14 -4 -31 -73
-101 -80 -81 -85 -84 -99 -65 -12 18 -7 26 65 104 43 46 82 83 87 82 5 -2 14
-11 20 -20z m1051 -70 c7 -25 -67 -275 -92 -313 -18 -27 -45 -31 -63 -9 -16
19 -16 95 -1 123 6 12 11 39 11 61 0 29 6 46 21 59 12 9 40 36 63 59 22 23 44
43 48 43 4 0 10 -10 13 -23z m-1327 -188 c15 -24 15 -23 -73 -82 -98 -66 -115
-74 -125 -57 -17 26 -11 34 53 72 34 21 76 49 92 62 37 31 37 31 53 5z m-318
-201 c0 -12 -97 -37 -176 -44 l-74 -7 0 26 c0 24 4 26 58 32 31 3 82 12 112
19 48 11 57 11 68 -2 6 -9 12 -19 12 -24z"/>
<path d="M3613 3548 c-11 -13 -19 -27 -17 -33 1 -5 19 -63 39 -127 l37 -118
38 0 c22 0 42 5 45 10 8 13 60 13 103 1 36 -11 40 -6 16 20 -15 17 -15 20 0
44 20 30 39 32 65 4 13 -14 21 -17 26 -9 4 6 5 13 4 14 -65 53 -313 216 -329
216 -4 0 -16 -10 -27 -22z"/>
<path d="M1126 3333 c-15 -13 -24 -27 -21 -33 3 -5 -5 -12 -19 -16 -14 -3 -30
-12 -37 -20 -20 -24 64 -18 86 6 22 24 45 26 45 4 0 -26 24 -9 30 22 6 25 2
31 -26 45 -30 14 -33 14 -58 -8z"/>
<path d="M2550 2653 l-43 -37 33 -7 c18 -4 39 -5 46 -2 16 6 27 50 16 69 -6
12 -16 7 -52 -23z"/>
<path d="M3292 2667 c-26 -28 -42 -69 -42 -109 0 -27 3 -30 23 -23 76 24 119
29 162 17 25 -7 56 -12 70 -12 24 0 23 3 -28 75 -51 72 -81 96 -70 55 8 -29
-23 -37 -50 -13 -36 32 -43 34 -65 10z"/>
<path d="M2910 2641 c0 -19 60 -80 99 -100 16 -9 19 -16 12 -29 -5 -9 -12 -26
-16 -37 -6 -18 -8 -16 -20 13 -8 18 -29 40 -47 50 -18 9 -50 35 -71 56 -38 40
-38 40 -66 23 -16 -9 -41 -17 -57 -17 -31 0 -86 -57 -119 -124 -17 -34 -27
-42 -67 -54 -29 -8 -48 -19 -48 -28 0 -21 63 -18 111 6 28 15 68 23 139 27
l99 6 6 -25 c4 -14 5 -36 3 -49 -3 -20 5 -26 47 -42 28 -10 59 -26 70 -36 16
-14 75 -41 91 -41 1 0 5 14 9 31 4 17 14 33 22 36 8 3 52 -6 97 -20 66 -20 95
-24 149 -20 l67 6 11 39 c5 22 9 52 7 66 -3 29 -6 30 -128 35 l-55 2 -28 58
c-28 58 -45 69 -66 43 -9 -11 -10 -20 -1 -35 8 -15 8 -27 0 -41 -20 -37 -40
-22 -77 55 -24 51 -45 81 -67 94 -17 11 -42 31 -55 45 -29 31 -51 34 -51 7z"/>
<path d="M2376 2496 l-50 -43 34 -92 c32 -89 34 -92 46 -69 7 14 25 33 39 42
50 33 53 96 4 96 -23 0 -32 29 -23 75 3 19 5 35 3 35 -2 0 -26 -20 -53 -44z"/>
<path d="M3740 2205 c0 -8 20 -37 45 -65 25 -28 45 -55 45 -60 0 -6 7 -10 16
-10 10 0 -1 23 -37 75 -52 74 -69 89 -69 60z"/>
<path d="M326 1958 c-25 -149 -37 -346 -30 -478 7 -132 14 -150 122 -315 106
-163 187 -261 347 -420 154 -153 275 -250 445 -357 l95 -59 3 58 c2 32 -1 87
-7 123 -6 36 -15 123 -21 194 -5 70 -16 140 -23 154 -7 15 -34 41 -60 58 -73
48 -85 62 -139 162 -28 51 -61 106 -74 121 -21 25 -23 36 -20 112 2 77 5 88
35 129 29 40 32 51 29 95 -2 28 -13 63 -23 79 l-19 28 -17 -21 c-9 -11 -21
-21 -27 -21 -22 0 -95 64 -120 105 -26 44 -56 65 -93 65 -11 0 -37 16 -57 36
-32 31 -42 35 -71 30 -25 -4 -49 3 -95 26 -98 48 -129 76 -123 107 5 26 -18
91 -33 91 -4 0 -15 -46 -24 -102z"/>
</g>
</svg>
